<?xml version="1.0" standalone="no"?>
<!DOCTYPE svg PUBLIC "-//W3C//DTD SVG 20010904//EN"
 "http://www.w3.org/TR/2001/REC-SVG-20010904/DTD/svg10.dtd">
<svg version="1.0" xmlns="http://www.w3.org/2000/svg"
 width="300.000000pt" height="169.000000pt" viewBox="0 0 300.000000 169.000000"
 preserveAspectRatio="xMidYMid meet">
<metadata>
Created by potrace 1.10, written by Peter Selinger 2001-2011
</metadata>
<g transform="translate(0.000000,169.000000) scale(0.100000,-0.100000)"
fill="#000000" stroke="none">
<path d="M551 1146 c-23 -27 -6 -48 36 -44 33 3 38 6 38 28 0 21 -5 26 -31 28
-19 2 -36 -3 -43 -12z"/>
<path d="M681 1144 c-13 -10 -13 -14 -2 -28 9 -11 35 -16 89 -18 75 -3 77 -4
77 -28 l0 -25 -155 -5 c-147 -5 -155 -6 -155 -25 0 -17 8 -20 60 -23 91 -3
107 -9 103 -35 -3 -21 -7 -22 -154 -25 -158 -3 -185 -10 -170 -47 4 -12 28
-15 131 -15 103 0 127 -3 131 -15 13 -32 -15 -44 -109 -47 -84 -3 -92 -5 -92
-23 0 -19 7 -20 110 -22 141 -4 157 -7 153 -36 -3 -20 -10 -22 -63 -25 -86 -3
-105 -9 -105 -32 0 -26 19 -30 180 -33 123 -2 135 -4 138 -21 6 -28 -15 -36
-94 -36 -48 0 -73 -4 -76 -12 -14 -37 -3 -38 293 -38 318 0 334 2 382 59 43
51 49 91 45 276 -4 193 -11 217 -78 261 l-40 27 -292 1 c-204 1 -296 -2 -307
-10z m616 -41 c61 -45 68 -71 68 -259 0 -149 -2 -175 -19 -206 -36 -67 -57
-73 -276 -74 -107 -1 -198 0 -202 2 -3 2 -3 16 1 32 6 21 13 26 32 24 154 -22
215 -8 277 63 106 120 70 305 -73 371 -58 28 -103 30 -171 9 -64 -19 -61 -20
-66 15 -3 20 0 34 9 39 8 4 99 7 203 6 175 -1 192 -3 217 -22z m-177 -87 c114
-75 126 -232 26 -324 -51 -47 -79 -57 -153 -56 -100 0 -185 83 -200 192 -11
80 61 186 144 212 50 16 140 4 183 -24z m-318 -4 c16 -7 16 -11 -8 -57 -39
-76 -30 -175 23 -277 2 -5 -21 -8 -52 -8 -54 0 -56 1 -49 23 15 46 -1 81 -42
89 -15 3 -18 11 -16 35 2 18 -2 41 -8 52 -9 18 -7 21 15 27 36 9 67 51 55 74
-6 10 -10 23 -10 29 0 16 62 25 92 13z"/>
<path d="M925 991 c-16 -10 -40 -29 -52 -42 l-22 -25 49 -42 c55 -48 56 -47
63 38 2 30 8 63 12 73 10 23 -11 22 -50 -2z"/>
<path d="M990 982 c0 -15 -4 -42 -9 -60 -11 -38 -6 -39 52 -13 24 11 55 23 70
26 15 4 30 11 32 16 9 13 -79 59 -113 59 -28 0 -32 -3 -32 -28z"/>
<path d="M1105 919 c-22 -10 -49 -20 -60 -23 -17 -5 -12 -11 30 -40 55 -37 94
-76 77 -76 -6 0 -27 14 -47 31 -20 18 -38 29 -41 26 -3 -3 -9 -34 -14 -69 -5
-36 -12 -73 -16 -82 -6 -16 -4 -16 32 -1 52 22 73 42 96 94 21 46 19 114 -5
143 -11 14 -16 14 -52 -3z"/>
<path d="M837 872 c-6 -31 6 -99 21 -114 5 -5 31 0 66 13 31 12 53 25 49 29
-21 20 -123 100 -127 100 -2 0 -6 -13 -9 -28z"/>
<path d="M990 781 c-19 -10 -54 -24 -77 -31 -36 -11 -41 -15 -30 -28 16 -20
86 -51 113 -52 18 0 22 8 27 48 3 26 9 55 12 65 9 21 -1 21 -45 -2z"/>
<path d="M1459 1098 c0 -2 -2 -13 -3 -25 -2 -20 2 -23 36 -23 34 0 38 3 38 25
0 22 -4 25 -35 25 -19 0 -35 -1 -36 -2z"/>
<path d="M1760 956 l0 -136 38 0 37 0 -3 55 -4 55 32 0 32 0 -4 -55 -3 -55 35
0 35 0 1 135 0 136 -35 -3 -35 -3 3 -57 2 -58 -31 0 -31 0 2 58 3 57 -37 3
-37 3 0 -135z"/>
<path d="M297 1034 c-13 -13 -7 -42 9 -48 24 -9 137 -7 152 3 8 5 12 17 10 27
-3 16 -14 19 -84 22 -44 1 -83 0 -87 -4z"/>
<path d="M1460 926 l0 -106 35 0 36 0 -3 103 -3 102 -32 3 -33 3 0 -105z"/>
<path d="M1560 925 l0 -105 35 0 35 0 0 80 c0 64 3 80 15 80 12 0 15 -16 15
-80 l0 -80 35 0 35 0 0 88 c0 48 -4 92 -8 98 -12 18 -50 26 -72 14 -13 -7 -20
-7 -20 0 0 5 -16 10 -35 10 l-35 0 0 -105z"/>
<path d="M1990 937 c0 -101 7 -117 50 -117 14 0 31 5 38 12 9 9 12 9 12 0 0
-7 14 -12 35 -12 l35 0 0 105 0 105 -35 0 -35 0 0 -80 c0 -72 -2 -80 -19 -80
-18 0 -19 6 -14 80 l6 80 -37 0 -36 0 0 -93z"/>
<path d="M2190 925 l0 -105 35 0 34 0 3 73 c3 66 5 72 26 75 17 3 22 10 22 33
0 33 -23 40 -39 12 -10 -17 -10 -17 -11 0 0 13 -8 17 -35 17 l-35 0 0 -105z"/>
<path d="M2330 925 l0 -105 35 0 34 0 3 73 c3 66 5 72 26 75 16 3 22 10 22 30
1 39 13 12 36 -77 13 -52 24 -75 36 -79 29 -7 21 -22 -12 -22 -26 0 -30 -4
-30 -28 0 -26 2 -27 39 -24 22 2 46 11 54 20 8 10 28 68 44 130 l30 112 -38 0
-37 0 -7 -65 c-3 -36 -10 -65 -15 -65 -4 0 -11 29 -15 65 l-7 65 -52 0 c-29 0
-57 -5 -63 -11 -8 -8 -13 -8 -17 0 -4 6 -20 11 -37 11 l-29 0 0 -105z"/>
<path d="M250 915 c-17 -21 4 -45 40 -45 36 0 57 24 40 45 -7 8 -25 15 -40 15
-15 0 -33 -7 -40 -15z"/>
<path d="M288 798 c-11 -28 4 -38 59 -38 51 0 54 2 51 23 -3 19 -10 22 -54 25
-35 2 -53 -1 -56 -10z"/>
<path d="M1640 690 c0 -72 2 -80 19 -80 15 0 21 8 24 33 l3 32 13 -32 c10 -25
19 -33 38 -33 25 0 25 0 8 26 -12 19 -14 29 -6 37 6 6 11 28 11 48 0 42 -11
49 -71 49 l-39 0 0 -80z m68 28 c-5 -32 -28 -35 -28 -4 0 17 5 26 16 26 10 0
14 -7 12 -22z"/>
<path d="M1780 690 l0 -80 50 0 c38 0 50 4 50 15 0 10 -10 15 -30 15 -24 0
-30 4 -30 21 0 15 5 20 23 17 14 -2 22 2 22 12 0 10 -8 14 -22 13 -17 -2 -23
2 -23 17 0 15 7 20 25 20 16 0 25 6 25 15 0 11 -12 15 -45 15 l-45 0 0 -80z"/>
<path d="M1912 761 c-8 -5 -12 -22 -10 -42 3 -29 7 -35 33 -39 31 -5 50 -40
21 -40 -9 0 -16 5 -16 10 0 6 -9 10 -21 10 -15 0 -20 -5 -17 -22 3 -20 9 -23
47 -23 50 0 68 18 57 58 -5 22 -12 27 -36 27 -23 0 -30 4 -30 20 0 21 15 27
25 10 9 -15 45 -12 45 3 0 32 -64 50 -98 28z"/>
<path d="M2038 703 c5 -94 5 -95 54 -91 l43 3 3 78 c3 72 1 77 -18 77 -18 0
-20 -6 -20 -65 0 -54 -3 -65 -16 -65 -14 0 -16 9 -12 65 5 62 5 65 -16 65 -21
0 -22 -4 -18 -67z"/>
<path d="M2178 691 c-3 -77 -2 -81 18 -81 19 0 21 4 16 51 -3 37 -2 50 7 45 6
-4 11 -18 11 -31 0 -22 22 -40 34 -28 3 4 6 17 6 30 0 13 5 23 11 23 8 0 9
-15 5 -45 -7 -41 -5 -45 13 -45 19 0 21 6 21 80 0 78 -1 80 -24 80 -20 0 -25
-6 -31 -40 -8 -50 -20 -51 -32 -2 -6 27 -15 38 -30 40 -20 3 -22 -2 -25 -77z"/>
<path d="M2350 690 l0 -80 50 0 c38 0 50 4 50 15 0 10 -10 15 -30 15 -24 0
-30 4 -30 21 0 18 4 20 25 15 21 -5 25 -3 25 14 0 16 -5 21 -22 18 -15 -2 -24
3 -26 15 -3 13 3 17 27 17 21 0 31 5 31 15 0 11 -12 15 -50 15 l-50 0 0 -80z"/>
<path d="M392 691 c-8 -4 -12 -17 -10 -27 2 -15 12 -19 43 -19 36 0 40 3 40
25 0 21 -5 25 -30 28 -16 1 -36 -2 -43 -7z"/>
<path d="M357 567 c-12 -33 8 -38 144 -35 126 3 134 4 134 23 0 19 -8 20 -136
23 -108 2 -138 0 -142 -11z"/>
</g>
</svg>
